<?xml version="1.0" encoding="utf-8"?>
<!-- Generator: Adobe Illustrator 23.0.4, SVG Export Plug-In . SVG Version: 6.00 Build 0)  -->
<svg version="1.1" id="图层_1" xmlns="http://www.w3.org/2000/svg" xmlns:xlink="http://www.w3.org/1999/xlink" x="0px" y="0px"
	 viewBox="0 0 48 48" style="enable-background:new 0 0 48 48;" xml:space="preserve">
<style type="text/css">
	.st0{fill:#4EB77F;}
</style>
<path class="st0" d="M8.25,40.96V11.04c0-0.44-0.36-0.79-0.79-0.79H6.04c-0.44,0-0.79,0.36-0.79,0.79l0,0v32.91
	c0,0.44,0.36,0.79,0.79,0.79l0,0h32.91c0.44,0,0.79-0.36,0.79-0.79l0,0v-1.41c0-0.44-0.36-0.79-0.79-0.79l0,0H9.04
	C8.61,41.75,8.25,41.39,8.25,40.96L8.25,40.96L8.25,40.96z M40.74,7.25H11.76c-1.11,0-2.01,0.9-2.01,2.01l0,0v28.99
	c0,1.11,0.9,2.01,2.01,2.01l0,0h28.99c1.11,0,2.01-0.9,2.01-2.01V9.26C42.75,8.15,41.85,7.25,40.74,7.25z M23.24,19.94
	c0,0.45-0.36,0.81-0.81,0.81l0,0h-7.37c-0.45,0-0.81-0.36-0.81-0.81l0,0v-7.38c0-0.45,0.36-0.81,0.81-0.81h7.38
	c0.45,0,0.81,0.36,0.81,0.81l0,0L23.24,19.94z M38.24,31.94c0,0.45-0.36,0.81-0.81,0.81H27.06c-0.45,0-0.81-0.36-0.81-0.81v-1.38
	c0-0.45,0.36-0.81,0.81-0.81h10.38c0.45,0,0.81,0.36,0.81,0.81L38.24,31.94z M38.24,25.94c0,0.45-0.36,0.81-0.81,0.81H27.06
	c-0.45,0-0.81-0.36-0.81-0.81v-1.38c0-0.45,0.36-0.81,0.81-0.81h10.38c0.45,0,0.81,0.36,0.81,0.81L38.24,25.94z M38.24,19.94
	c0,0.45-0.36,0.81-0.81,0.81H27.06c-0.45,0-0.81-0.36-0.81-0.81v-1.38c0-0.45,0.36-0.81,0.81-0.81h10.38c0.45,0,0.81,0.36,0.81,0.81
	L38.24,19.94z M38.24,13.94c0,0.45-0.36,0.81-0.81,0.81H27.06c-0.45,0-0.81-0.36-0.81-0.81v-1.38c0-0.45,0.36-0.81,0.81-0.81h10.38
	c0.45,0,0.81,0.36,0.81,0.81L38.24,13.94z"/>
</svg>
