<svg id="图层_1" data-name="图层 1" xmlns="http://www.w3.org/2000/svg" viewBox="0 0 37.5 43.59"><defs><style>.cls-1{fill:#4eb77f;fill-rule:evenodd;}</style></defs><title>RW</title><path class="cls-1" d="M17,18.28v3.78a1.06,1.06,0,0,0,.75-.2A2.26,2.26,0,0,0,18,20.53V19.6a1.77,1.77,0,0,0-.21-1.06A.93.93,0,0,0,17,18.28Z" transform="translate(-5.25 -2.08)"/><path class="cls-1" d="M24,2.08,5.25,13V34.77L24,45.67l18.74-10.9V13Zm-3.57,22.3a3.15,3.15,0,0,1,.41,1,23.3,23.3,0,0,1,.08,2.51v4.49H18V26.73A5.06,5.06,0,0,0,17.79,25a.8.8,0,0,0-.81-.33v7.67H13.77v-17H16a13.17,13.17,0,0,1,3.07.24,2.22,2.22,0,0,1,1.31,1.24A7.25,7.25,0,0,1,20.93,20a6.55,6.55,0,0,1-.36,2.67,1.72,1.72,0,0,1-1.41.82A2.28,2.28,0,0,1,20.44,24.38Zm12.37,8h-4q-.55-3.92-1-8.92-.19,2.14-.9,8.92H23l-1.43-17h3.11L25,21.31,25.31,27q.18-4.44.88-11.66h3.33c.05.49.16,2.36.35,5.6l.36,6.47q.27-6.16.89-12.07h3.11Z" transform="translate(-5.25 -2.08)"/></svg>